<?xml version="1.0" encoding="utf-8"?>
<!-- Generator: Adobe Illustrator 21.1.0, SVG Export Plug-In . SVG Version: 6.00 Build 0)  -->
<svg version="1.1" id="Layer_1" xmlns="http://www.w3.org/2000/svg" xmlns:xlink="http://www.w3.org/1999/xlink" x="0px" y="0px"
	 viewBox="0 0 200 50" style="enable-background:new 0 0 200 50;" xml:space="preserve">
<style type="text/css">
	.st0{fill-rule:evenodd;clip-rule:evenodd;fill:#333333;}
	.st1{fill:#333333;}
	.st2{opacity:0.5;}
</style>
<g>
	<polygon class="st1" points="75.8,31.6 75.8,14 71,14 71,36 85.3,36 85.3,31.6 	"/>
	<path class="st1" d="M98.8,14h-7.6v22H96V18.4h2.3c2.4,0,3.9,1.2,3.9,3.3v0.1c0,1.9-1.4,3.3-3.8,3.3h-1v4.3h0.9
		c4.9,0,8.9-2.6,8.9-7.7v-0.1C107.2,17.1,104,14,98.8,14z"/>
	<path class="st1" d="M120.6,14H113v22h4.8V18.4h2.3c2.4,0,3.9,1.2,3.9,3.3v0.1c0,1.9-1.4,3.3-3.8,3.3h-1v4.3h0.9
		c4.9,0,8.9-2.6,8.9-7.7v-0.1C129,17.1,125.8,14,120.6,14z"/>
</g>
</svg>
