<?xml version="1.0" encoding="utf-8"?>
<!-- Generator: Adobe Illustrator 21.1.0, SVG Export Plug-In . SVG Version: 6.00 Build 0)  -->
<svg version="1.1" id="Layer_1" xmlns="http://www.w3.org/2000/svg" xmlns:xlink="http://www.w3.org/1999/xlink" x="0px" y="0px"
	 viewBox="0 0 200 50" style="enable-background:new 0 0 200 50;" xml:space="preserve">
<style type="text/css">
	.st0{fill-rule:evenodd;clip-rule:evenodd;fill:#333333;}
	.st1{fill:#333333;}
	.st2{opacity:0.5;}
</style>
<g>
	<path class="st1" d="M52.9,25c0-5.3,3.6-9.9,8.8-11.3c0.7-0.2,1.4-0.3,2.1-0.3c0.6,0,1.2,0,1.8,0c1.2,0.1,2.3,0.4,3.5,0.8
		c0.5,0.2,0.9,0.7,0.9,1.3c0,0.8-0.8,1.4-1.6,1c-0.3-0.1-0.6-0.2-0.9-0.3c-1-0.3-2-0.5-3.1-0.4c-4.1,0.1-7.7,3-8.7,7.1
		c-0.2,0.9-0.3,1.7-0.2,2.6c0.2,4.1,3.2,7.5,7,8.4c0.8,0.2,1.7,0.3,2.6,0.3c3.4-0.2,6.3-2.1,7.7-4.9c0.1-0.3,0.3-0.6,0.4-0.8
		c0.2-0.4,0.6-0.8,1.1-0.7c0.4,0,0.7,0.2,0.9,0.5c0.3,0.4,0.3,0.8,0.1,1.3c-0.3,0.6-0.6,1.2-1,1.8c-1.7,2.5-4,4.1-6.9,4.9
		c-0.6,0.2-1.2,0.2-1.8,0.3c-0.6,0.1-1.2,0.1-1.9,0c-2.4-0.2-4.6-1-6.4-2.5c-2.1-1.7-3.4-3.9-4.1-6.5C53,26.8,52.9,25.9,52.9,25z"/>
	<path class="st1" d="M109.6,31.7c-0.8,0-1.5,0-2.2,0c0-0.1,0-13.3,0-13.6c0.7,0,1.5,0,2.2,0c0,0.2,0,0.4,0,0.6c0,0.2,0,0.4,0,0.6
		c0,0.2,0,0.4,0,0.6s0,0.4,0,0.6c0,0.2,0,0.4,0,0.6c0,0.2,0,0.4,0,0.6s0,0.4,0,0.6c0,0.2,0,0.4,0,0.6c0,0.2,0,0.4,0,0.6
		c2.1,0,4.2,0,6.2,0c0-1.9,0-3.7,0-5.5c0.8,0,1.5,0,2.2,0c0,4.5,0,9,0,13.6c-0.1,0-2,0-2.2,0c0-2,0-4.1,0-6.1c-2.1,0-4.2,0-6.3,0
		c0,0.5,0,1,0,1.5c0,0.5,0,1,0,1.5c0,0.5,0,1,0,1.5C109.6,30.7,109.6,31.2,109.6,31.7z"/>
	<path class="st1" d="M140,36.3c-0.7,0-1.5,0-2.2,0c0-5,0-9.9,0-14.8c0.1,0,1.5,0,1.8,0c0.1,0.4,0.2,0.9,0.3,1.4
		c0.1,0,0.1,0,0.2-0.1c0.2-0.3,0.5-0.6,0.8-0.8c0.5-0.3,1-0.5,1.5-0.6c0.6-0.1,1.2-0.1,1.8,0.1c1,0.2,1.7,0.8,2.2,1.7
		c0.3,0.6,0.5,1.2,0.7,1.9c0.1,0.7,0.1,1.4,0.1,2.1c0,0.8-0.2,1.7-0.5,2.4c-0.3,0.6-0.6,1.2-1.2,1.6c-0.5,0.4-1.2,0.7-1.8,0.8
		c-0.6,0.1-1.1,0.1-1.7-0.1c-0.8-0.2-1.4-0.6-1.9-1.2c0-0.1-0.1-0.1-0.2-0.1c0,0.2,0,0.4,0.1,0.6c0,0.4,0.1,0.8,0.1,1.2
		c0,1.3,0,2.5,0,3.8C140,36.2,140,36.2,140,36.3z M144.8,26.4c0-0.2,0-0.5-0.1-0.8c-0.1-0.5-0.2-0.9-0.4-1.3c-0.3-0.6-0.7-1-1.4-1.1
		c-0.4-0.1-0.8-0.1-1.2,0c-0.8,0.1-1.4,0.6-1.6,1.4c-0.1,0.4-0.2,0.8-0.2,1.3c0,0.7,0,1.3,0.1,2c0.1,0.4,0.2,0.9,0.4,1.3
		c0.2,0.4,0.6,0.8,1.1,0.9c0.4,0.1,0.8,0.2,1.2,0.1c0.6,0,1.1-0.3,1.5-0.8c0.2-0.3,0.3-0.5,0.4-0.9
		C144.8,27.9,144.8,27.2,144.8,26.4z"/>
	<path class="st1" d="M66.9,22.7c0.3-0.1,0.7-0.3,1-0.4c1.9-0.8,3.8-1.5,5.7-2.3c0.3-0.1,0.6-0.2,0.9-0.1c0.4,0.1,0.7,0.4,0.8,0.9
		c0.1,0.5-0.1,0.8-0.4,1.2c-0.1,0.1-0.3,0.2-0.5,0.3c-2,0.8-4,1.6-6,2.4c-0.2,0.1-0.5,0.2-0.8,0.3c0.1,0,0.1,0.1,0.2,0.1
		c1.2,0.5,2.3,1,3.5,1.5c0.4,0.1,0.6,0.4,0.8,0.7c0.3,0.7-0.2,1.5-0.9,1.6c-0.3,0-0.5,0-0.8-0.1c-1.6-0.7-3.2-1.4-4.9-2.1
		c-0.3-0.1-0.6-0.2-0.9-0.4c-0.1,0-0.1,0-0.2,0c-0.6,0.2-1.2,0.5-1.8,0.7c-0.3,0.1-0.6,0.1-0.9,0.1c-0.4-0.1-0.7-0.4-0.8-0.9
		c-0.1-0.5,0.1-0.9,0.4-1.2c0.1-0.1,0.3-0.2,0.4-0.2c0.6-0.2,1.1-0.5,1.7-0.7c0.1,0,0.2-0.1,0.2-0.2c0.8-1.9,1.6-3.7,2.4-5.6
		c0-0.1,0.1-0.2,0.2-0.3c0.3-0.5,1-0.7,1.5-0.5c0.5,0.2,0.8,0.9,0.6,1.4c0,0.1-0.1,0.2-0.1,0.2c-0.5,1.1-1,2.3-1.5,3.4
		C66.9,22.5,66.9,22.6,66.9,22.7C66.9,22.6,66.9,22.7,66.9,22.7z"/>
	<path class="st1" d="M130,27.1c-2.3,0-4.6,0-6.8,0c0,0.2,0,0.3,0,0.4c0,0.4,0.1,0.8,0.3,1.2c0.4,0.8,1,1.2,1.8,1.4
		c0.5,0.1,1,0.1,1.4,0c0.9-0.1,1.8-0.3,2.6-0.7c0,0,0,0,0.1,0c0,0,0,0,0,0c0,0.1,0,1.4,0,1.8c0,0-0.1,0-0.1,0.1
		c-0.6,0.3-1.2,0.5-1.9,0.5c-0.7,0.1-1.3,0.1-2,0.1c-0.9,0-1.7-0.2-2.4-0.7c-1-0.6-1.7-1.5-2-2.7c-0.2-0.8-0.3-1.5-0.2-2.3
		c0-0.6,0.1-1.2,0.3-1.8c0.3-0.8,0.7-1.6,1.4-2.2c0.5-0.5,1.1-0.8,1.8-0.9c0.9-0.2,1.8-0.2,2.7,0.1c1.4,0.4,2.3,1.4,2.7,2.7
		c0.2,0.5,0.2,1.1,0.2,1.6c0,0.4,0,0.8,0,1.1C130,27,130,27.1,130,27.1z M123.2,25.5c1.6,0,3.1,0,4.6,0c0,0,0-0.1,0-0.1
		c0-0.4-0.1-0.7-0.2-1.1c-0.2-0.7-0.7-1.2-1.4-1.3c-0.3-0.1-0.7-0.1-1,0c-0.4,0.1-0.8,0.2-1.2,0.5c-0.2,0.2-0.4,0.5-0.6,0.8
		C123.3,24.7,123.2,25.1,123.2,25.5z"/>
	<path class="st1" d="M86.3,18.1c0.4,0,0.9,0,1.3,0c1.8,4.5,3.6,9.1,5.3,13.6c-0.6,0-1.1,0-1.7,0c-0.6-1.4-1.1-2.9-1.7-4.3
		c-1.8,0-3.6,0-5.4,0c-0.6,1.4-1.1,2.9-1.7,4.3c-0.5,0-1.1,0-1.6,0C82.8,27.2,84.6,22.6,86.3,18.1z M87,19.9c0,0.1,0,0.1,0,0.1
		c-0.2,0.6-0.3,1.3-0.6,1.9c-0.5,1.3-1,2.6-1.5,3.9c0,0.1,0,0.1-0.1,0.2c1.5,0,2.9,0,4.4,0c0-0.1,0-0.1-0.1-0.2
		c-0.1-0.3-0.2-0.6-0.4-0.9C88.2,23.2,87.5,21.6,87,19.9z"/>
	<path class="st1" d="M134.6,31.7c-0.7,0-1.4,0-2.2,0c0-4.8,0-9.6,0-14.5c0.7,0,1.4,0,2.2,0C134.6,17.4,134.7,31.4,134.6,31.7z"/>
	<path class="st1" d="M101,31.7c-0.5,0-1,0-1.5,0c0-3.4,0-6.8,0-10.2c0.4,0,0.8,0,1.3,0c0.1,0.6,0.1,1.2,0.2,1.9
		c0.1,0,0.1-0.1,0.1-0.1c0.2-0.3,0.4-0.5,0.6-0.8c0.5-0.5,1-0.9,1.7-1.1c0.3-0.1,0.6-0.1,0.9-0.1c0.3,0,0.7,0.1,1,0.1
		c0,0,0.1,0,0.1,0c-0.1,0.5-0.1,0.9-0.2,1.4c-0.2,0-0.3-0.1-0.5-0.1c-0.9-0.1-1.7,0-2.3,0.6c-0.6,0.5-1,1.1-1.1,1.8
		c-0.1,0.3-0.1,0.7-0.1,1c0,1.7,0,3.5,0,5.2C101,31.6,101,31.7,101,31.7z"/>
	<path class="st1" d="M96.2,21.6c0,3.4,0,6.8,0,10.2c-0.1,0-1.3,0-1.5,0c0-3.4,0-6.8,0-10.2C94.8,21.5,96.1,21.5,96.2,21.6z"/>
	<path class="st1" d="M96.4,18.8c0,0.1,0,0.2-0.1,0.4c-0.1,0.4-0.4,0.7-0.8,0.7c-0.1,0-0.3,0-0.4-0.1c-0.2-0.1-0.4-0.3-0.5-0.5
		c-0.1-0.3-0.1-0.6,0-0.9c0.1-0.3,0.4-0.6,0.7-0.6c0.2,0,0.3,0,0.4,0c0.4,0.1,0.5,0.4,0.6,0.8C96.4,18.7,96.4,18.7,96.4,18.8
		C96.4,18.8,96.4,18.8,96.4,18.8z"/>
</g>
</svg>
