<?xml version="1.0" encoding="utf-8"?>
<!-- Generator: Adobe Illustrator 21.1.0, SVG Export Plug-In . SVG Version: 6.00 Build 0)  -->
<svg version="1.1" id="Layer_1" xmlns="http://www.w3.org/2000/svg" xmlns:xlink="http://www.w3.org/1999/xlink" x="0px" y="0px"
	 viewBox="0 0 200 50" style="enable-background:new 0 0 200 50;" xml:space="preserve">
<style type="text/css">
	.st0{fill-rule:evenodd;clip-rule:evenodd;fill:#333333;}
	.st1{fill:#333333;}
	.st2{opacity:0.5;}
</style>
<g>
	<path class="st0" d="M45.8,25.5c0.7,4.6,4.9,6.2,8.8,5.8c4.5-0.5,9.3-3.5,11.6-7.6c0.8-1.5,1.3-3.8,0.8-5.9l0,0
		c0.8,5.6-5.9,11.8-11.9,12c-5.5,0.2-7.1-2.2-7.1-4.9c0.2,0.1,0.4,0.2,0.6,0.2c6.8,2.2,14.2-3.2,15.4-7.7c0.8-3.2-1-4.6-3.9-4.7
		c-2.9-0.1-7,1-10.1,4.7c-0.7,0.8,0.2,1.6,0.8,0.8c2.7-3.2,5.6-3.7,7.2-3.6c1.4,0.1,1.9,1.5,0.6,3.3c-1.6,2.2-7.7,4.4-10.1,2.5
		c-2.2-1.8-0.1-4.8,1.8-6.5c0.6-0.5,0.3-0.8-0.3-0.4c-5.4,3.7-6.1,8-3.7,10.4C46.1,24.4,45.9,25,45.8,25.5z M67.2,17.7L67.2,17.7
		c0.8,2.5,0.1,4.6-0.7,6.2c-2.1,4.4-7.4,7.8-12.2,8.4c-3.9,0.5-8.2-0.7-8.9-5.2c-0.6,4.6,1.1,9.9,8.4,9.9c6.5,0,12.6-4.2,15.2-9.4
		c0.2,0.2,0.4,0.8,0.5,1.5l0.2,0C70.2,27,70.6,21.4,67.2,17.7z"/>
	<path class="st1" d="M97.2,16.9H87c-0.3,0-0.5,0.2-0.5,0.4l-1.7,14.4c0,0.3,0.1,0.4,0.4,0.4h10.4c0.3,0,0.5-0.2,0.5-0.4l0.3-2.3
		h-7.6l0.4-3.6h7l0.3-2.6h-7l0.4-3.6h7.6l0.3-2.2C97.6,17.1,97.5,16.9,97.2,16.9z M105.4,20.4c-2.1,0-3.8,0.3-5.6,1l-0.5,0.4
		l-0.2,0.6L98,31.7c0,0.3,0.1,0.4,0.3,0.4h3l1.1-9.1c0.7-0.2,1.5-0.4,2.2-0.4c0.6,0,0.9,0.1,1.1,0.3c0.1,0.2,0.2,0.4,0.2,0.6l0,0.7
		l-0.9,7.8h2.8c0.3,0,0.5-0.2,0.5-0.4l1-7.4c0-0.4,0.1-0.8,0.1-1.1c0-0.8-0.2-1.5-0.5-1.9C108.1,20.7,106.8,20.4,105.4,20.4z
		 M121.1,21.4c-0.9-0.7-2.2-1.1-3.8-1.1c-0.8,0-1.6,0.1-2.2,0.3c-0.6,0.2-1.2,0.5-1.7,0.9c-0.8,0.7-1.4,1.7-1.7,2.8
		c-0.4,1.1-0.5,2.4-0.5,3.5c0,3.1,2,4.5,4.9,4.5c1.5,0,2.7-0.2,4.1-0.6c0.3-0.1,0.5-0.2,0.6-0.3l0.1-0.5l-0.3-1.5
		c-1.2,0.3-2.2,0.6-3.7,0.6c-0.7,0-1.7-0.2-2.1-0.6c-0.4-0.4-0.4-0.9-0.4-1.5l1.2,0c2.8-0.1,4.6-0.2,5.8-1.4
		c0.6-0.6,0.7-1.6,0.7-2.4C122.1,23,121.8,22.1,121.1,21.4z M116.2,26l-1.7,0.1c0.2-1.1,0.4-2.3,1.1-3c0.4-0.3,0.9-0.5,1.5-0.5
		c0.6,0,1.1,0.2,1.4,0.4c0.3,0.3,0.5,0.7,0.5,1.3C118.9,25.5,118,25.9,116.2,26z M131.2,21.3l0-0.5c0-0.3-0.1-0.4-0.5-0.4
		c-0.7,0-1.4,0.1-2.3,0.2c-1,0.1-1.9,0.3-2.7,0.5c-0.4,0.1-0.6,0.2-0.8,0.4c-0.2,0.2-0.2,0.3-0.3,0.7l-1.2,9.5
		c0,0.3,0.1,0.5,0.4,0.5h2.4c0.4,0,0.5-0.3,0.6-0.5l1-8.6c0.6-0.2,1.2-0.2,1.9-0.2c0.5,0,0.8,0,1.3,0.1L131.2,21.3z M143.3,20.4
		c-0.5,0-1.2-0.1-2.1-0.1c-0.8,0-1.6,0-2.5,0.1c-1.9,0.1-3.7,0.4-4.7,1.2c-1,0.8-1.6,1.9-1.6,3.6c0,0.4,0,0.9,0.2,1.3
		c0.2,0.4,0.4,0.8,0.9,1.1c0.3,0.2,0.6,0.3,1.1,0.4c-0.8,0.1-1.5,0.2-2,0.6c-0.2,0.2-0.4,0.4-0.5,0.7c-0.1,0.3-0.2,0.7-0.2,1
		c0,1.1,0.9,1.6,1.8,1.8l0.1,0.2l-0.2,0.2c-0.4,0.1-0.8,0.2-1.2,0.3c-0.3,0.1-0.7,0.2-0.9,0.4c-0.4,0.4-0.7,0.9-0.7,1.6
		c0,1.1,0.6,1.8,1.5,2.1c0.9,0.3,2.2,0.4,3.3,0.4c2,0,3.7-0.2,4.9-0.9c1.2-0.7,1.8-1.8,1.8-3.4c0-1.2-0.4-1.8-1.2-2.2
		c-0.7-0.4-2-0.5-3.3-0.5h-2c-0.3,0-0.4-0.1-0.5-0.2c-0.1-0.1-0.2-0.2-0.2-0.5c0-0.3,0.1-0.6,0.4-0.8c0.2-0.2,0.4-0.2,0.9-0.2h1.8
		c0.6,0,1.2-0.1,1.8-0.3c0.5-0.2,1.1-0.4,1.4-0.8c0.4-0.3,0.7-0.7,0.9-1.2c0.2-0.5,0.4-1,0.4-1.6c0-0.7-0.3-1.5-1-2.1l-0.1-0.1
		l0.2-0.1c0.3,0,1.2,0.1,1.6,0.2l0.4-1.9C143.6,20.6,143.5,20.5,143.3,20.4z M135.4,32.4h2.2c0.5,0,0.8,0,1.1,0.2
		c0.3,0.2,0.5,0.5,0.5,1c0,0.7-0.4,1.1-0.9,1.4c-0.5,0.3-1.2,0.3-2,0.3c-0.4,0-1.1,0-1.6-0.2c-0.5-0.2-0.7-0.5-0.7-1.1
		C134.1,33.4,134.6,32.7,135.4,32.4z M138.7,26.3c-0.4,0.4-0.9,0.5-1.6,0.5c-0.6,0-1-0.2-1.3-0.5c-0.2-0.3-0.3-0.7-0.3-1.3
		c0-0.9,0.2-1.6,0.8-2c0.4-0.3,0.9-0.4,1.5-0.4c0.6,0,1,0.1,1.2,0.4c0.2,0.3,0.4,0.7,0.4,1.3C139.5,25.1,139.2,25.8,138.7,26.3z
		 M153.9,20.8c-0.7-0.4-1.8-0.5-3-0.5c-1.4,0-3.1,0.2-4.5,0.6c-0.7,0.2-0.9,0.3-0.9,0.7l0,0.4l0.2,1.3c1.6-0.4,3.2-0.7,4.3-0.7
		c0.5,0,0.9,0,1.2,0.2c0.3,0.1,0.4,0.3,0.4,0.7c0,0.4,0,0.7-0.1,1.1l-3,0.5c-0.9,0.1-2,0.3-3,0.7c-0.6,0.3-1,0.8-1.3,1.4
		c-0.3,0.6-0.4,1.3-0.4,2c0,1.4,0.6,2.1,1.5,2.5c0.9,0.4,2,0.6,3.1,0.6c1.3,0,2.9-0.2,4.2-0.6c0.9-0.2,1.3-0.8,1.5-1.8l0.7-5.7
		c0-0.4,0.1-0.9,0.1-1.3C155,21.9,154.6,21.2,153.9,20.8z M150.9,30.1c-0.5,0.2-1.2,0.2-1.7,0.2c-0.9,0-1.9,0-1.9-1.3
		c0-1.4,0.5-1.7,2-2l2.1-0.3C150.9,29.8,150.9,29.9,150.9,30.1z"/>
</g>
</svg>
