<?xml version="1.0" encoding="utf-8"?>
<!-- Generator: Adobe Illustrator 21.1.0, SVG Export Plug-In . SVG Version: 6.00 Build 0)  -->
<svg version="1.1" id="Layer_1" xmlns="http://www.w3.org/2000/svg" xmlns:xlink="http://www.w3.org/1999/xlink" x="0px" y="0px"
	 viewBox="0 0 200 50" style="enable-background:new 0 0 200 50;" xml:space="preserve">
<style type="text/css">
	.st0{fill-rule:evenodd;clip-rule:evenodd;fill:#333333;}
	.st1{fill:#333333;}
	.st2{opacity:0.5;}
</style>
<g>
	<path class="st0" d="M135.1,16.3L135.1,16.3c0,3.9,0,8.4,0,12.6c0,1.1-0.2,3.3,0.4,3.8c0.3,0.2,1,0.2,1.3,0.2c0,0.3,0,0.5,0,0.8
		c-1.9,0-3.8,0-5.6,0c0-0.3,0-0.5,0-0.8c0.3,0,1,0,1.2-0.2c0.7-0.4,0.5-2.4,0.5-3.6c0-2.7,0-5.4,0-8.1c0-1.8,0.3-4.1-1.6-3.8
		c0-0.3,0-0.5,0-0.8C132.6,16.4,133.9,16.5,135.1,16.3z"/>
	<path class="st0" d="M116.2,16.4c0,2.4,0,4.7,0,7.1c0.7-1.2,1.9-2.2,4-1.8c4.3,0.8,4.8,8.5,1.7,11.3c-1.1,1-3.3,1.4-4.8,0.5
		c-0.4-0.2-0.9-0.9-1.3-0.9c-0.6,0-0.7,0.9-1.1,1.2c-0.3,0-0.5,0-0.8,0c0.4-2.5,0.2-5.7,0.2-8.9c0-1.2,0-2.4,0-3.8
		c0-1.6,0.4-4-1.5-3.6c0-0.3,0-0.5,0-0.8C113.7,16.5,114.9,16.4,116.2,16.4z M117.1,23.4c-1.6,1.8-1.5,7.6,0.2,9.1
		c0.8,0.7,2.2,0.7,3,0c0.9-0.9,1.1-2.9,1.2-4.6c0.1-1.8-0.2-3.5-1-4.7C119.5,22.1,117.8,22.6,117.1,23.4z"/>
	<path class="st0" d="M127.2,16.5c0.3,0,0.6,0,0.8,0.1c1.4,0.6,0.6,3.3-1.2,2.6c-0.5-0.2-1.1-0.9-0.7-1.9
		C126.2,16.9,126.5,16.5,127.2,16.5z"/>
	<path class="st0" d="M83.7,16.6c1.6,0,3.3,0,4.9,0c1.2,4.2,2.4,8.4,3.7,12.6c1.3-4.1,2.5-8.4,3.8-12.6c1.7,0,3.3,0,5,0
		c0,0.3,0,0.5,0,0.8c-0.8,0-1.7,0.1-1.9,0.7c-0.3,0.7-0.2,2.4-0.2,3.5c0,2.4,0,4.9,0,7.4c0,1.1-0.1,2.8,0.3,3.4
		c0.3,0.5,1.2,0.6,1.8,0.6c0,0.3,0,0.5,0,0.8c-2.1,0-4.3,0-6.4,0c0-0.3,0-0.5,0-0.8c0.6,0,1.5-0.1,1.8-0.6c0.4-0.6,0.2-2.4,0.2-3.4
		c0-3.5,0-7.4,0-10.7c-1.6,5.1-3,10.4-4.6,15.5c-0.3,0-0.5,0-0.8,0c-1.5-5.2-3-10.3-4.5-15.5c-0.1,2.9,0,6.8,0,10.1
		c0,2.4-0.3,4.9,2.2,4.7c0,0.3,0,0.5,0,0.8c-1.8,0-3.5,0-5.3,0c0-0.3,0-0.5,0-0.8c2.4,0.3,2.1-2.5,2.1-4.8c0-2,0-4.7,0-6.8
		c0-1.5,0.3-3.5-0.7-3.9c-0.4-0.2-1-0.1-1.4-0.1c0-0.2,0-0.4,0-0.6L83.7,16.6z"/>
	<path class="st0" d="M106.3,21.6c2.5-0.2,4.1,1.2,4.9,2.8c0.9,1.8,0.9,5.1,0,7c-0.8,1.6-2.5,2.8-4.5,2.8c-2.9,0-4.7-2.2-5.1-4.9
		c-0.2-1.7,0.1-3.9,0.6-4.9C102.9,22.7,104.2,21.7,106.3,21.6z M107.7,33c2.1-1.3,2.2-8.5,0.3-10.1c-1.1-0.9-2.7-0.4-3.3,0.6
		c-1.4,2-1,7.5,0.3,9.2C105.7,33.3,106.9,33.5,107.7,33z"/>
	<path class="st0" d="M147.2,27.7c-2.3,0.1-4.7,0-7,0c-0.1,2.3,0.2,4.6,1.9,5.2c2.1,0.7,3.6-1,4.2-2.5c0.3,0.1,0.5,0.2,0.8,0.4
		c-0.9,2.1-3.3,4.1-6.2,2.9c-1.2-0.5-2.3-1.8-2.7-3.1c-1.1-3.7,0.1-8.9,4-9.2c1.4-0.1,2.5,0.4,3.2,1.1
		C146.4,23.7,147,25.6,147.2,27.7z M142.1,22.4c-1.6,0.2-1.9,2.5-2.1,4.4c1.6,0,3.1,0,4.7,0C144.7,24.7,144.3,22.1,142.1,22.4z"/>
	<path class="st0" d="M128.5,21.7c0.2,1.4,0.1,3.3,0.1,5.1c0,1.8-0.2,3.7,0,5.1c0.1,0.8,0.7,1.1,1.7,1c0,0.3,0,0.5,0,0.8
		c-1.9,0-3.7,0-5.6,0c0-0.3,0-0.5,0-0.8c1.7,0.3,1.7-1,1.7-2.6c0-1.8,0-3.5,0-5.4c0-1.4-0.1-2.5-1.6-2.3c0-0.3,0-0.5,0-0.8
		C126.1,21.8,127.3,21.8,128.5,21.7z"/>
	<rect x="67.7" y="24" class="st1" width="3.6" height="3.6"/>
	<rect x="78.5" y="24" class="st1" width="3.6" height="3.6"/>
	<rect x="46" y="24" class="st1" width="3.6" height="3.6"/>
	<path class="st1" d="M54.6,29.8c0,1.1,0.2,1.9,0.5,2.2c0.3,0.3,0.8,0.5,1.4,0.5c0.2,0,0.5,0,1,0v1h-8.7v-1c0.7,0,1.2,0,1.5-0.1
		c0.7-0.1,1.1-0.5,1.3-1.2c0.1-0.3,0.1-0.8,0.1-1.5V16.7c-1.5,0-2.6,0.5-3.5,1.5c-0.8,0.9-1.3,2.3-1.5,4.1L46,22.1l0.2-6.3h14.1
		l0.2,6.3l-0.9,0.2c-0.2-1.8-0.7-3.2-1.5-4.1c-0.8-0.9-2-1.4-3.5-1.5V29.8z"/>
	<rect x="56.9" y="24" class="st1" width="3.6" height="3.6"/>
	<rect x="150.4" y="24" class="st1" width="3.6" height="3.6"/>
</g>
</svg>
