<?xml version="1.0" encoding="utf-8"?>
<!-- Generator: Adobe Illustrator 21.1.0, SVG Export Plug-In . SVG Version: 6.00 Build 0)  -->
<svg version="1.1" id="Layer_1" xmlns="http://www.w3.org/2000/svg" xmlns:xlink="http://www.w3.org/1999/xlink" x="0px" y="0px"
	 viewBox="0 0 200 50" style="enable-background:new 0 0 200 50;" xml:space="preserve">
<style type="text/css">
	.st0{fill-rule:evenodd;clip-rule:evenodd;fill:#333333;}
	.st1{fill:#333333;}
	.st2{opacity:0.5;}
</style>
<g>
	<g>
		<g class="st2">
			<path class="st1" d="M140.8,34.3h-16.3c-0.6,0-1.2-0.5-1.2-1.2s0.5-1.2,1.2-1.2h16.3c0.6,0,1.2,0.5,1.2,1.2
				S141.5,34.3,140.8,34.3z"/>
		</g>
		<g class="st2">
			<path class="st1" d="M140.8,18h-16.3c-0.6,0-1.2-0.5-1.2-1.2s0.5-1.2,1.2-1.2h16.3c0.6,0,1.2,0.5,1.2,1.2S141.5,18,140.8,18z"/>
		</g>
		<g class="st2">
			<path class="st1" d="M133.8,26.2h-9.3c-0.6,0-1.2-0.5-1.2-1.2s0.5-1.2,1.2-1.2h9.3c0.6,0,1.2,0.5,1.2,1.2S134.5,26.2,133.8,26.2z
				"/>
		</g>
		<g class="st2">
			<path class="st1" d="M91.8,34.3c-0.6,0-1.2-0.5-1.2-1.2V16.8c0-0.6,0.5-1.2,1.2-1.2s1.2,0.5,1.2,1.2v16.3
				C93,33.8,92.5,34.3,91.8,34.3z"/>
		</g>
		<path class="st1" d="M76.7,18c1.3,0,2.3,1,2.3,2.3v9.3c0,1.3-1,2.3-2.3,2.3h-14c-1.3,0-2.3-1-2.3-2.3v-9.3c0-1.3,1-2.3,2.3-2.3
			H76.7 M76.7,15.7h-14c-2.6,0-4.7,2.1-4.7,4.7v9.3c0,2.6,2.1,4.7,4.7,4.7h14c2.6,0,4.7-2.1,4.7-4.7v-9.3
			C81.3,17.8,79.2,15.7,76.7,15.7L76.7,15.7z"/>
		<path class="st1" d="M111,32.1L94.7,25l16.2-7.1c0.6-0.3,0.9-0.9,0.6-1.5c-0.3-0.6-0.9-0.9-1.5-0.6l-18.7,8.2c0,0,0,0-0.1,0
			c0,0-0.1,0-0.1,0.1c0,0-0.1,0-0.1,0.1c0,0-0.1,0-0.1,0.1c0,0-0.1,0.1-0.1,0.1c0,0,0,0.1-0.1,0.1c0,0,0,0.1-0.1,0.1c0,0,0,0,0,0.1
			c0,0,0,0,0,0c0,0,0,0.1,0,0.1c0,0,0,0.1,0,0.1c0,0,0,0.1,0,0.1c0,0,0,0.1,0,0.1c0,0,0,0.1,0,0.1c0,0,0,0.1,0,0.1c0,0,0,0.1,0,0.1
			c0,0,0,0.1,0,0.1c0,0,0,0,0,0c0,0.1,0.1,0.1,0.1,0.2l0,0c0,0.1,0.1,0.1,0.1,0.2c0,0,0,0,0,0c0,0,0.1,0.1,0.1,0.1c0,0,0,0,0,0
			c0.1,0,0.1,0.1,0.2,0.1c0,0,0,0,0,0l18.7,8.2c0.2,0.1,0.3,0.1,0.5,0.1c0.4,0,0.9-0.3,1.1-0.7C111.8,33,111.6,32.4,111,32.1z"/>
		<path class="st1" d="M124.5,34.3c-0.6,0-1.2-0.5-1.2-1.2V16.8c0-0.6,0.5-1.2,1.2-1.2s1.2,0.5,1.2,1.2v16.3
			C125.7,33.8,125.1,34.3,124.5,34.3z"/>
	</g>
</g>
</svg>
