<?xml version="1.0" encoding="utf-8"?>
<!-- Generator: Adobe Illustrator 21.1.0, SVG Export Plug-In . SVG Version: 6.00 Build 0)  -->
<svg version="1.1" id="Layer_1" xmlns="http://www.w3.org/2000/svg" xmlns:xlink="http://www.w3.org/1999/xlink" x="0px" y="0px"
	 viewBox="0 0 200 50" style="enable-background:new 0 0 200 50;" xml:space="preserve">
<style type="text/css">
	.st0{fill-rule:evenodd;clip-rule:evenodd;fill:#333333;}
	.st1{fill:#333333;}
	.st2{opacity:0.5;}
</style>
<g>
	<polygon class="st0" points="135.1,24.8 137,28.1 132.9,35.2 124.7,35.2 120.6,28.1 124.7,21 132.9,21 134.5,23.8 132.7,23.8 
		132,22.5 125.6,22.5 122.4,28.1 125.6,33.6 132,33.6 135.2,28.1 134.2,26.4 133.8,26.4 131,31.3 129.2,31.3 129.2,27.9 127.6,31.3 
		125.6,31.3 125.6,24.8 127.1,24.8 127.1,28.8 128.9,24.8 130.7,24.8 130.7,28.6 132.9,24.8 	"/>
	<path class="st0" d="M84.5,16.7c0-1.3,1-2.3,2.3-2.3c1.3,0,2.3,1,2.3,2.3c0,1.3-1,2.3-2.3,2.3C85.6,19,84.5,18,84.5,16.7"/>
	<path class="st0" d="M84.4,35.2c0.2,0,0.4-0.1,0.4-0.3l3-13.4c0,0,0-0.1,0-0.1c0-0.2-0.2-0.4-0.4-0.4h-9.3c-0.2,0-0.3,0.1-0.4,0.3
		L74,29.4v-8c0-0.2-0.2-0.4-0.4-0.4h-2.9c-0.2,0-0.4,0.1-0.4,0.3l-3.9,8.6l0-8.4c0-0.2-0.2-0.4-0.4-0.4h-2.6c-0.2,0-0.4,0.2-0.4,0.4
		l0.3,13.4c0,0.2,0.2,0.4,0.4,0.4h2.7c0.2,0,0.4-0.1,0.4-0.3l4.1-8.3l-0.1,8.1c0,0.2,0.2,0.4,0.4,0.4h2.9c0.2,0,0.3-0.1,0.4-0.3
		l5.8-11.2h3.3l-2.4,10.9c0,0,0,0.1,0,0.1c0,0.2,0.2,0.4,0.4,0.4H84.4z"/>
	<path class="st0" d="M93.3,29.5l-1.2,5.4c0,0.2-0.2,0.3-0.4,0.3h-2.8c-0.2,0-0.4-0.2-0.4-0.4c0,0,0-0.1,0-0.1l4.1-18.5l0.1-0.4
		c0-0.2,0.2-0.3,0.3-0.4l3-0.6c0,0,0.1,0,0.1,0c0.2,0,0.4,0.2,0.4,0.4c0,0,0,0.1,0,0.1l-1.7,7.5c1-1.2,2.4-2.3,4.1-2.3
		c4.3,0,2.8,5.2,2.8,5.2l-2,9.2c0,0.2-0.2,0.3-0.4,0.3h-2.8c-0.2,0-0.4-0.2-0.4-0.4c0,0,0-0.1,0-0.1l2-9.1c0,0,0.5-1.8-0.9-1.8
		C95.4,23.8,94.1,25.9,93.3,29.5"/>
	<path class="st0" d="M111,34.7c0,0,0,0.1,0,0.1c0,0.2,0.2,0.4,0.4,0.4h2.8c0.2,0,0.4-0.1,0.4-0.3l3-13.4c0,0,0-0.1,0-0.1
		c0-0.2-0.2-0.4-0.4-0.4h-2.8c-0.2,0-0.4,0.1-0.4,0.3l-0.3,1.2c0.1-0.5-0.5-1.9-2.9-1.9c-2.4,0-5.1,1.4-6.4,5.8
		c-1.3,4.5-1,9.2,2.6,9.2c2,0,2.6-0.7,2.8-0.8c0,0,0.1-0.1,0.1-0.2c0-0.1,0.5-2.3,0.5-2.3c0-0.2-0.1-0.3-0.3-0.3
		c-0.1,0-0.1,0-0.2,0.1c-0.4,0.3-0.9,0.4-1.4,0.4c-1.3,0.1-1.3-2.1-0.5-5.1c0.7-2.7,1.9-3.8,3.3-3.8c1.4,0,2,1.3,1.8,2.2L111,34.7z"
		/>
</g>
</svg>
