<?xml version="1.0" encoding="utf-8"?>
<!-- Generator: Adobe Illustrator 21.1.0, SVG Export Plug-In . SVG Version: 6.00 Build 0)  -->
<svg version="1.1" id="Layer_1" xmlns="http://www.w3.org/2000/svg" xmlns:xlink="http://www.w3.org/1999/xlink" x="0px" y="0px"
	 viewBox="0 0 200 50" style="enable-background:new 0 0 200 50;" xml:space="preserve">
<style type="text/css">
	.st0{fill-rule:evenodd;clip-rule:evenodd;fill:#333333;}
	.st1{fill:#333333;}
	.st2{opacity:0.5;}
</style>
<g>
	<path class="st1" d="M55.3,26.6l-2.3-12.7c-0.2-0.9-0.9-1.2-1.5-1.1l-13.3,2.3c-0.4,0.1-0.7,0.2-1,0.5c0,0-3.4,3.2-3.9,3.7
		c-0.5,0.5-0.8,1.2-0.7,2.2l2.6,14.5c0.2,0.9,1,1.2,1.5,1.1c0.6-0.1,13.7-2.4,14.4-2.5c0.7-0.1,1.4-0.6,1.9-1.5l2-4.4
		C55.5,27.9,55.5,27.7,55.3,26.6 M48.2,15.6c-0.4,0.3-1.4,0.7-2.4,0.8c-0.9,0.1-1.4,0-1-0.3c0.4-0.3,1.4-0.7,2.4-0.8
		C48.1,15.1,48.5,15.3,48.2,15.6 M46,15l-3,0.9l-2.1,0l2.9-0.9L46,15z M38.1,15.7l2.9-0.5l-0.9,0.9l-3,0.5L38.1,15.7z M36.9,35.6
		l-0.6-3.2l3.2-0.6l0.6,3.2L36.9,35.6z M39.5,30.9l-2.1-2.5l1.1-3.1l2.1,2.5L39.5,30.9z M42.5,25.7c-1,0.2-2-0.5-2.2-1.5
		c-0.2-1,0.5-2,1.5-2.2c1-0.2,2,0.5,2.2,1.5C44.2,24.5,43.5,25.5,42.5,25.7 M46.7,23.5l-2.5-3l3.9-0.7L46.7,23.5z M48.1,17.2
		l-2.9,0.1l3.7-1.1L48.1,17.2z M52.7,15.4l0.2,3.4l-0.9-2.3L52.7,15.4z M51.7,18.3c0.2-0.3,0.5,0.2,0.6,1.1c0.2,0.9,0.1,1.9,0,2.2
		c-0.2,0.3-0.5-0.2-0.6-1.1C51.4,19.5,51.5,18.6,51.7,18.3 M51.6,22l0.8,2.2l0.2,3.2l-0.8-2.2L51.6,22z M52.6,32.2l-0.5-3.1l0.6-1.2
		l0.5,3L52.6,32.2z"/>
	<g>
		<path class="st1" d="M74.5,28.9h-3.8V18.8h3.8c2.2,0,6.8-0.2,6.8,5.1C81.2,29.2,76.6,28.9,74.5,28.9 M74.8,20.3h-1.6v7.1h1.6
			c1.3,0,3.8,0.2,3.8-3.5C78.6,20.1,76.1,20.3,74.8,20.3"/>
		<path class="st1" d="M86.9,29.1c-2.2,0-4.2-0.4-4.2-2.5c0-2.4,3.3-2.3,5.9-2.3c0-1.2,0-1.7-2.2-1.7c-1.2,0-2.4,0.2-3,0.3v-1.4
			c0.8-0.1,2.2-0.3,3.2-0.3c2.1,0,4.5,0.2,4.5,2.6v5.2C89.5,29,88.3,29.1,86.9,29.1 M88.7,25.6c-0.3,0-1.1,0-1.4,0
			c-1,0-1.9,0.1-1.9,1.1c0,1,0.9,1,1.9,1c0.5,0,0.9,0,1.4-0.1V25.6z"/>
		<path class="st1" d="M107.9,29.1c-1.3,0-2.4-0.1-3.3-0.3v-1.4c0.9,0.2,1.9,0.4,2.9,0.4c0.9,0,2.2-0.2,2.2-0.9c0-0.7-0.9-0.8-2.4-1
			c-0.5-0.1-2.8-0.5-2.8-2.2c0-1.9,2.3-2.4,4-2.4c1.7,0,2.7,0.2,3.2,0.2v1.4c-0.3,0-1.5-0.3-2.7-0.3c-0.8,0-2,0.1-2,0.8
			c0,0.7,1.3,0.8,2.2,1c1.2,0.2,3.1,0.6,3.1,2.2C112.3,28.1,110.6,29.1,107.9,29.1"/>
		<polygon class="st1" points="120.3,28.9 116.8,25.1 116.8,28.9 114.3,28.9 114.3,18.7 116.8,18.7 116.8,24.7 120.4,21.3 
			123.3,21.3 119.3,24.8 123.5,28.9 		"/>
		<rect x="164.9" y="18.7" class="st1" width="2.4" height="10.2"/>
		<path class="st1" d="M99.7,28.9v-5c0-0.4-0.1-1.3-1.3-1.3c-0.9,0-1.6,0.1-2.2,0.2v6.1h-2.4v-7.4c2.4-0.2,4.4-0.4,5.6-0.4
			c1.3,0,2.8,0.6,2.8,2.4v5.4H99.7z"/>
		<path class="st1" d="M155.2,28.7c-0.6,0.2-1.5,0.3-2.4,0.3c-0.5,0-0.8,0-1.3-0.1v3h-2.4V21.3c0.7,0,2.3-0.1,3.2-0.1
			c1.3,0,2.4,0.1,3.4,0.6c1.5,0.7,1.9,2,1.9,3.2C157.6,26.5,156.9,28,155.2,28.7 M152.8,22.6c-0.9,0-1.3,0.1-1.3,0.1v4.7
			c0,0,0.5,0.1,1.2,0.1c1.8,0,2.4-1,2.4-2.4C155.1,23.6,154.6,22.6,152.8,22.6"/>
		<path class="st1" d="M124,25.2c0-2.5,1.5-4.1,4.6-4.1c3.4,0,4.5,1.5,4.4,4.6h-6.4c0.2,1.7,1.6,2.1,3.2,2.1c1,0,1.8-0.1,2.6-0.3
			v1.3c0,0-1.5,0.3-3.2,0.3C126.3,29.1,124,28.1,124,25.2 M128.5,22.4c-1.4,0-1.9,0.9-1.9,2h3.9C130.4,23.4,130.1,22.4,128.5,22.4"
			/>
		<rect x="159.6" y="22.1" class="st1" width="2.4" height="6.8"/>
		<rect x="159.6" y="18.7" class="st1" width="2.4" height="2.2"/>
		<path class="st1" d="M138.4,28.6V27c0,0,2,0.4,3.6,0.4c1,0,2.8-0.2,2.8-1.4c0-2-6.4-0.5-6.4-4.1c0-2.4,2.4-3.1,5-3.1
			c1.7,0,3.1,0.3,3.1,0.3v1.6c0,0-1.4-0.3-2.9-0.3c-0.9,0-2.7,0.2-2.7,1.3c0,2.2,6.4,0.3,6.4,4.2c0,2.4-2.8,3.1-5.2,3.1
			C140,29,138.4,28.6,138.4,28.6"/>
	</g>
</g>
</svg>
