<?xml version="1.0" encoding="utf-8"?>
<!-- Generator: Adobe Illustrator 21.1.0, SVG Export Plug-In . SVG Version: 6.00 Build 0)  -->
<svg version="1.1" id="Layer_1" xmlns="http://www.w3.org/2000/svg" xmlns:xlink="http://www.w3.org/1999/xlink" x="0px" y="0px"
	 viewBox="0 0 200 50" style="enable-background:new 0 0 200 50;" xml:space="preserve">
<style type="text/css">
	.st0{fill-rule:evenodd;clip-rule:evenodd;fill:#333333;}
	.st1{fill:#333333;}
	.st2{opacity:0.5;}
</style>
<g>
	<g>
		<path class="st1" d="M120.9,19.4l2,7l2-7h4.5v11.3H126l0.1-5.2l0.2-2.1l-2.1,7.3h-2.6l-2.1-7.3l0.1,1.6c0,0.5,0,1,0,1.6
			c0,0.5,0,1.1,0,1.6v2.5h-3.3V19.4H120.9L120.9,19.4z"/>
		<polygon class="st1" points="104.7,19.4 113.9,19.4 113.9,22 108.4,22 108.4,23.6 113,23.6 113,26.3 108.4,26.3 108.4,28 
			114.1,28 114.1,30.7 104.7,30.7 104.7,19.4 		"/>
		<polygon class="st1" points="92.3,19.4 102.7,19.4 102.7,22.4 99.4,22.4 99.4,30.7 95.7,30.7 95.7,22.4 92.3,22.4 92.3,19.4 		"/>
		<path class="st1" d="M87.5,22.7c0-0.3-0.2-0.6-0.5-0.7c-0.3-0.2-0.6-0.2-1.1-0.2c-0.3,0-0.6,0-0.8,0.1c-0.2,0.1-0.3,0.3-0.3,0.5
			c0,0.4,0.3,0.6,0.9,0.9c0.2,0.1,0.8,0.2,1.8,0.5c1.3,0.3,2.3,0.7,2.9,1.2c0.7,0.5,1,1.3,1,2.3c0,1.3-0.5,2.4-1.6,3
			c-0.9,0.6-2.1,0.8-3.6,0.8c-1.4,0-2.6-0.3-3.5-1c-1-0.7-1.5-1.6-1.5-2.8h3.6c0.1,0.4,0.3,0.8,0.7,1c0.3,0.2,0.6,0.2,1,0.2
			c0.4,0,0.7-0.1,0.9-0.2c0.3-0.1,0.5-0.3,0.5-0.6c0-0.4-0.3-0.7-1-0.9c-0.3-0.1-0.7-0.2-1.3-0.4c-0.9-0.2-1.6-0.4-2.1-0.7
			c-0.7-0.3-1.2-0.7-1.6-1.1c-0.4-0.5-0.6-1.2-0.6-2c0-1,0.4-1.8,1.3-2.4c0.9-0.7,2.1-1,3.7-1c1.3,0,2.3,0.3,3.1,0.8
			c1,0.6,1.5,1.5,1.7,2.8H87.5L87.5,22.7z"/>
		<polygon class="st1" points="68.4,19.4 72.5,19.4 74.5,23.2 76.4,19.4 80.5,19.4 76.3,26.5 76.3,30.7 72.6,30.7 72.6,26.6 
			68.4,19.4 		"/>
		<path class="st1" d="M64,22.7c0-0.3-0.2-0.6-0.5-0.7c-0.3-0.2-0.6-0.2-1.1-0.2c-0.3,0-0.6,0-0.8,0.1c-0.2,0.1-0.3,0.3-0.3,0.5
			c0,0.4,0.3,0.6,0.9,0.9c0.2,0.1,0.8,0.2,1.8,0.5c1.3,0.3,2.3,0.7,2.9,1.2c0.7,0.5,1,1.3,1,2.3c0,1.3-0.5,2.4-1.6,3
			C65.2,30.7,64,31,62.6,31c-1.4,0-2.6-0.3-3.5-1c-1-0.7-1.5-1.6-1.5-2.8h3.6c0.1,0.4,0.3,0.8,0.7,1c0.3,0.2,0.6,0.2,1,0.2
			c0.4,0,0.7-0.1,0.9-0.2c0.3-0.1,0.5-0.3,0.5-0.6c0-0.4-0.3-0.7-1-0.9c-0.3-0.1-0.7-0.2-1.3-0.4c-0.9-0.2-1.6-0.4-2.1-0.7
			c-0.7-0.3-1.2-0.7-1.6-1.1c-0.4-0.5-0.6-1.2-0.6-2c0-1,0.4-1.8,1.3-2.4c0.9-0.7,2.1-1,3.7-1c1.3,0,2.3,0.3,3.1,0.8
			c1,0.6,1.5,1.5,1.7,2.8H64L64,22.7z"/>
		<polygon class="st1" points="50.2,23.6 55.9,23.6 55.9,26.5 50.2,26.5 50.2,23.6 		"/>
		<path class="st1" d="M44.8,22.7c0-0.3-0.2-0.6-0.5-0.7c-0.3-0.2-0.6-0.2-1.1-0.2c-0.3,0-0.6,0-0.8,0.1c-0.2,0.1-0.3,0.3-0.3,0.5
			c0,0.4,0.3,0.6,0.9,0.9c0.2,0.1,0.8,0.2,1.8,0.5c1.3,0.3,2.3,0.7,2.9,1.2c0.7,0.5,1,1.3,1,2.3c0,1.3-0.5,2.4-1.6,3
			c-0.9,0.6-2.1,0.8-3.6,0.8c-1.4,0-2.6-0.3-3.5-1c-1-0.7-1.5-1.6-1.5-2.8h3.6c0.1,0.4,0.3,0.8,0.7,1c0.3,0.2,0.6,0.2,1,0.2
			c0.4,0,0.7-0.1,0.9-0.2c0.3-0.1,0.5-0.3,0.5-0.6c0-0.4-0.3-0.7-1-0.9c-0.3-0.1-0.7-0.2-1.3-0.4c-0.9-0.2-1.6-0.4-2.1-0.7
			c-0.7-0.3-1.2-0.7-1.6-1.1c-0.4-0.5-0.6-1.2-0.6-2c0-1,0.4-1.8,1.3-2.4c0.9-0.7,2.1-1,3.7-1c1.3,0,2.3,0.3,3.1,0.8
			c1,0.6,1.5,1.5,1.7,2.8H44.8L44.8,22.7z"/>
		<polygon class="st1" points="26.9,19.4 36.1,19.4 36.1,22 30.6,22 30.6,23.6 35.3,23.6 35.3,26.3 30.6,26.3 30.6,28 36.3,28 
			36.3,30.7 26.9,30.7 26.9,19.4 		"/>
	</g>
	<g>
		<path class="st1" d="M139.8,26.9l3.4-0.2c0.1,0.6,0.2,1,0.4,1.3c0.4,0.5,0.9,0.7,1.6,0.7c0.5,0,0.9-0.1,1.2-0.4
			c0.3-0.2,0.4-0.5,0.4-0.8c0-0.3-0.1-0.6-0.4-0.8s-0.9-0.5-1.8-0.7c-1.6-0.4-2.7-0.8-3.3-1.4c-0.7-0.6-1-1.3-1-2.2
			c0-0.6,0.2-1.2,0.5-1.7c0.3-0.5,0.9-0.9,1.5-1.2c0.7-0.3,1.6-0.5,2.8-0.5c1.5,0,2.6,0.3,3.4,0.8c0.8,0.5,1.2,1.4,1.4,2.6l-3.4,0.2
			c-0.1-0.5-0.3-0.9-0.6-1.1c-0.3-0.2-0.7-0.4-1.2-0.4c-0.4,0-0.7,0.1-0.9,0.3c-0.2,0.2-0.3,0.4-0.3,0.6c0,0.2,0.1,0.3,0.3,0.5
			c0.2,0.2,0.6,0.3,1.2,0.4c1.6,0.3,2.7,0.7,3.3,1c0.7,0.3,1.2,0.8,1.5,1.3c0.3,0.5,0.5,1.1,0.5,1.7c0,0.7-0.2,1.4-0.6,2
			s-1,1.1-1.7,1.4c-0.7,0.3-1.7,0.5-2.8,0.5c-2,0-3.3-0.4-4.1-1.1C140.3,29,139.9,28.1,139.8,26.9z"/>
		<path class="st1" d="M151.8,27.5h3.4v3.2h-3.4V27.5z"/>
		<path class="st1" d="M164.4,28.8h-4l-0.6,1.9h-3.6l4.3-11.5h3.9l4.3,11.5H165L164.4,28.8z M163.7,26.3l-1.3-4.1l-1.3,4.1H163.7z"
			/>
		<path class="st1" d="M169.7,27.5h3.4v3.2h-3.4V27.5z"/>
	</g>
</g>
</svg>
