<?xml version="1.0" encoding="utf-8"?>
<!-- Generator: Adobe Illustrator 21.1.0, SVG Export Plug-In . SVG Version: 6.00 Build 0)  -->
<svg version="1.1" id="Layer_1" xmlns="http://www.w3.org/2000/svg" xmlns:xlink="http://www.w3.org/1999/xlink" x="0px" y="0px"
	 viewBox="0 0 147 54" style="enable-background:new 0 0 147 54;" xml:space="preserve">
<g>
	<polygon points="78,39 78,36 69,36 69,36 66,36 66,54 66,54 66,54 78,54 78,51 69,51 69,46.5 75,46.5 75,43.5 69,43.5 69,39 	"/>
	<polygon points="102,3 102,0 93,0 93,0 90,0 90,18 90,18 90,18 102,18 102,15 93,15 93,10.5 99,10.5 99,7.5 93,7.5 93,3 	"/>
	<polygon points="39.6,36 35.4,36 27.9,43.5 27,43.5 27,36 24,36 24,54 27,54 27,46.5 27.9,46.5 35.4,54 39.6,54 30.6,45 	"/>
	<polygon points="81.6,0 77.4,0 69.9,7.5 69,7.5 69,0 66,0 66,18 69,18 69,10.5 69.9,10.5 77.4,18 81.6,18 72.6,9 	"/>
	<polygon points="135,18 120,18 120,21 131.3,21 120,32.4 120,36 135,36 135,33 123.6,33 135,21.6 	"/>
	<path d="M27,0c-5,0-9,4-9,9c0,5,4,9,9,9c5,0,9-4,9-9C36,4,32,0,27,0z M27,15c-3.3,0-6-2.7-6-6s2.7-6,6-6s6,2.7,6,6S30.3,15,27,15z"
		/>
	<rect x="21" y="18" width="3" height="18"/>
	<rect x="18" y="36" width="3" height="18"/>
	<path d="M16.5,9c0-5-4-9-9-9v0L0,0v0v18v0h7.5v0C12.5,18,16.5,14,16.5,9z M7.5,15L7.5,15L3,15V3h4.5v0c3.3,0,6,2.7,6,6
		C13.5,12.3,10.8,15,7.5,15z"/>
	<polygon points="12,36 12,48 1.9,36 0,36 0,54 3,54 3,42 13.1,54 15,54 15,36 	"/>
	<polygon points="18,18 14.6,18 12.1,21 9,24.7 5.9,21 3.4,18 0,18 0,18 0,36 3,36 3,22.2 9,29.3 15,22.2 15,36 18,36 	"/>
	<rect x="84" y="0" width="3" height="18"/>
	<polygon points="138.6,36 134.3,36 126.8,43.5 126,43.5 126,36 123,36 123,54 126,54 126,46.5 126.8,46.5 134.3,54 138.6,54 
		129.6,45 	"/>
	<rect x="141" y="36" width="3" height="18"/>
	<path d="M75,18h-9v18h3v-6h6c3.3,0,6-2.7,6-6S78.3,18,75,18z M75,27h-6v-6h6c1.7,0,3,1.3,3,3C78,25.7,76.6,27,75,27z"/>
	<path d="M99,28.3V18h-3v10.5c0,2.5-2,4.5-4.5,4.5S87,31,87,28.5V18h-3v10.5h0c0,4.1,3.4,7.5,7.5,7.5s7.5-3.4,7.5-7.5
		C99,28.4,99,28.4,99,28.3z"/>
	<g>
		<g>
			<path d="M109.4,36c-3.8,0-6.3-1.3-7.5-3.9l2.7-1.3c0.5,1,1.4,2.1,4.8,2.1c0.7,0,4.4-0.1,4.4-2.4c0-1-0.3-2-4.3-2.4
				c-2.1-0.2-7.1-0.7-7.1-5.2c0-3,2.9-5,7.1-5c4.3,0,6.2,1.7,7,3.2l-2.6,1.5c-0.8-1.4-2.9-1.7-4.4-1.7c-1.7,0-4.2,0.6-4.2,2
				c0,0.9,0.3,1.8,4.4,2.2c2.1,0.2,7,0.7,7,5.4C116.8,33.9,113.9,36,109.4,36z"/>
		</g>
	</g>
	<g>
		<g>
			<path d="M112.6,54c-3.8,0-6.3-1.3-7.5-3.9l2.7-1.3c0.5,1,1.4,2.1,4.8,2.1c0.7,0,4.4-0.1,4.4-2.4c0-1-0.3-2-4.3-2.4
				c-2.1-0.2-7.1-0.7-7.1-5.2c0-3,2.9-5,7.1-5c4.3,0,6.2,1.7,7,3.2l-2.6,1.5c-0.8-1.4-2.9-1.7-4.4-1.7c-1.7,0-4.2,0.6-4.2,2
				c0,0.9,0.3,1.8,4.4,2.2c2.1,0.2,7,0.7,7,5.4C120,51.9,117.1,54,112.6,54z"/>
		</g>
	</g>
	<polygon points="99.9,36 96,46.9 92,36 90.9,36 87,46.9 83,36 80,36 86.6,54 87.4,54 91.5,42.8 95.6,54 96.4,54 102.9,36 	"/>
	<rect x="39" y="7.5" width="6" height="3"/>
	<rect x="27" y="25.5" width="12" height="3"/>
	<rect x="108" y="7.5" width="18" height="3"/>
	<rect x="138" y="25.5" width="9" height="3"/>
</g>
</svg>
