<?xml version="1.0" encoding="utf-8"?>
<!-- Generator: Adobe Illustrator 21.1.0, SVG Export Plug-In . SVG Version: 6.00 Build 0)  -->
<svg version="1.1" id="Layer_1" xmlns="http://www.w3.org/2000/svg" xmlns:xlink="http://www.w3.org/1999/xlink" x="0px" y="0px"
	 viewBox="0 0 60 54" style="enable-background:new 0 0 60 54;" xml:space="preserve">
<g>
	<g>
		<path d="M39.2,0v27.2c-2.5-2-5.7-3.2-9.2-3.2c-8.3,0-15,6.7-15,15c0,8.3,6.7,15,15,15s15-6.7,15-15V0H39.2z M30,48c-5,0-9-4-9-9
			c0-5,4-9,9-9c5,0,9,4,9,9C39,44,35,48,30,48z"/>
		<rect x="57" y="0" width="3" height="54"/>
		<rect width="3" height="54"/>
	</g>
	<rect x="23.1" y="35.5" width="14" height="0.5"/>
</g>
</svg>
