<?xml version="1.0" encoding="utf-8"?>
<!-- Generator: Adobe Illustrator 21.1.0, SVG Export Plug-In . SVG Version: 6.00 Build 0)  -->
<svg version="1.1" id="Layer_1" xmlns="http://www.w3.org/2000/svg" xmlns:xlink="http://www.w3.org/1999/xlink" x="0px" y="0px"
	 viewBox="0 0 188 54" style="enable-background:new 0 0 188 54;" xml:space="preserve">
<g>
	<polygon points="105.5,0 101.3,0 93.8,7.5 92.9,7.5 92.9,0 89.9,0 89.9,18 92.9,18 92.9,10.5 93.8,10.5 101.3,18 105.5,18 96.5,9 	
		"/>
	<path d="M27,0c-5,0-9,4-9,9c0,5,4,9,9,9c5,0,9-4,9-9C36,4.1,31.9,0,27,0z M27,15c-3.3,0-6-2.7-6-6s2.7-6,6-6s6,2.7,6,6
		S30.3,15,27,15z"/>
	<rect x="59.9" y="0" width="3" height="18"/>
	<rect x="83.9" y="0" width="3" height="18"/>
	<path d="M16.5,9c0-5-4-9-9-9v0L0,0v0v18v0h7.5v0C12.5,18,16.5,14,16.5,9z M7.5,15L7.5,15L3,15V3h4.5v0c3.3,0,6,2.7,6,6
		C13.5,12.3,10.8,15,7.5,15z"/>
	<polygon points="77.9,0 77.9,12 67.8,0 65.9,0 65.9,18 68.9,18 68.9,6 79,18 80.9,18 80.9,0 	"/>
	<polygon points="56.9,0 53.5,0 51,3 48,6.7 44.9,3 42.4,0 39,0 39,0 39,18 42,18 42,4.2 48,11.4 54,4.2 54,18 56.9,18 	"/>
</g>
<g>
	<polygon points="122.6,39.1 122.6,36.1 113.6,36.1 113.6,36.1 110.6,36.1 110.6,54 110.6,54 110.6,54 122.6,54 122.6,51 113.6,51 
		113.6,46.5 119.6,46.5 119.6,43.6 113.6,43.6 113.6,39.1 	"/>
	<polygon points="38.9,39 38.9,36.1 29.9,36.1 29.9,36.1 26.9,36.1 26.9,54 26.9,54 26.9,54 38.9,54 38.9,51 29.9,51 29.9,46.5 
		35.9,46.5 35.9,43.5 29.9,43.5 29.9,39 	"/>
	<polygon points="15.6,36.1 11.4,36.1 3.9,43.5 3,43.5 3,36.1 0,36.1 0,54 3,54 3,46.5 3.9,46.5 11.4,54 15.6,54 6.6,45 	"/>
	<polygon points="107.7,36.1 92.7,36.1 92.7,39.1 104.1,39.1 92.7,50.4 92.7,54 107.7,54 107.7,51 96.3,51 107.7,39.7 	"/>
	<rect x="19.5" y="36.1" width="3" height="17.9"/>
	<polygon points="181.5,36.1 177.3,36.1 169.8,43.5 168.9,43.5 168.9,36.1 165.9,36.1 165.9,54 168.9,54 168.9,46.5 169.8,46.5 
		177.3,54 181.5,54 172.5,45 	"/>
	<rect x="185.4" y="36" width="3" height="17.9"/>
	<path d="M50.9,36.1h-9V54h3v-6h6c3.3,0,6-2.7,6-6C56.8,38.8,54.2,36.1,50.9,36.1z M50.9,45h-6v-6h6c1.7,0,3,1.3,3,3
		C53.8,43.7,52.5,45,50.9,45z"/>
	<path d="M73.3,46.3V36.1h-3v10.5c0,2.5-2,4.5-4.5,4.5s-4.5-2-4.5-4.5V36.1h-3v10.5h0c0,4.1,3.3,7.5,7.5,7.5s7.5-3.3,7.5-7.5
		C73.3,46.5,73.3,46.4,73.3,46.3z"/>
	<g>
		<g>
			<path d="M82.4,54c-3.8,0-6.2-1.3-7.4-3.8l2.7-1.3c0.5,1,1.4,2.1,4.7,2.1c0.7,0,4.4-0.1,4.4-2.4c0-1-0.3-2-4.3-2.4
				c-2.1-0.2-7-0.7-7-5.2c0-3,2.9-5,7.1-5c4.3,0,6.2,1.7,7,3.1l-2.6,1.5c-0.8-1.4-2.9-1.7-4.4-1.7c-1.7,0-4.1,0.6-4.1,2
				c0,0.8,0.3,1.8,4.4,2.2c2.1,0.2,7,0.7,7,5.4C89.7,51.9,86.8,54,82.4,54z"/>
		</g>
	</g>
	<g>
		<g>
			<path d="M155.5,54c-3.8,0-6.2-1.3-7.4-3.8l2.7-1.3c0.5,1,1.4,2.1,4.7,2.1c0.7,0,4.4-0.1,4.4-2.4c0-1-0.3-2-4.3-2.4
				c-2.1-0.2-7-0.7-7-5.2c0-3,2.9-5,7.1-5c4.3,0,6.2,1.7,7,3.1l-2.6,1.5c-0.8-1.4-2.9-1.7-4.4-1.7c-1.7,0-4.1,0.6-4.1,2
				c0,0.8,0.3,1.8,4.4,2.2c2.1,0.2,7,0.7,7,5.4C162.9,51.9,160,54,155.5,54z"/>
		</g>
	</g>
	<polygon points="144.5,36.1 140.5,46.9 136.6,36.1 135.5,36.1 131.6,46.9 127.6,36.1 124.6,36.1 131.2,54 132,54 136.1,42.8 
		140.1,54 141,54 147.5,36.1 	"/>
</g>
</svg>
